<svg width="30" height="30" viewBox="0 0 30 30" fill="none" xmlns="http://www.w3.org/2000/svg">
<path d="M1.66671 17.3333H7.00004C7.17279 17.3333 7.23905 17.3865 7.2596 17.407C7.28015 17.4276 7.33337 17.4938 7.33337 17.6666V28.3333C7.33337 28.506 7.28015 28.5723 7.2596 28.5928C7.23905 28.6134 7.17279 28.6666 7.00004 28.6666H1.66671C1.49395 28.6666 1.4277 28.6134 1.40715 28.5928C1.38659 28.5723 1.33337 28.506 1.33337 28.3333V17.6666C1.33337 17.4938 1.38659 17.4276 1.40715 17.407C1.4277 17.3865 1.49396 17.3333 1.66671 17.3333ZM23 11.9999H28.3334C28.5061 11.9999 28.5724 12.0531 28.5929 12.0737C28.6135 12.0942 28.6667 12.1605 28.6667 12.3333V28.3333C28.6667 28.506 28.6135 28.5723 28.5929 28.5928C28.5724 28.6134 28.5061 28.6666 28.3334 28.6666H23C22.8273 28.6666 22.761 28.6134 22.7405 28.5928C22.7199 28.5723 22.6667 28.506 22.6667 28.3333V12.3333C22.6667 12.1605 22.7199 12.0942 22.7405 12.0737C22.761 12.0531 22.8273 11.9999 23 11.9999ZM12.3334 1.33325H17.6667C17.8395 1.33325 17.9057 1.38647 17.9263 1.40703C17.9468 1.42758 18 1.49383 18 1.66659V28.3333C18 28.506 17.9468 28.5723 17.9263 28.5928C17.9057 28.6134 17.8395 28.6666 17.6667 28.6666H12.3334C12.1606 28.6666 12.0944 28.6134 12.0738 28.5928C12.0533 28.5723 12 28.506 12 28.3333V1.66659C12 1.49383 12.0533 1.42758 12.0738 1.40703C12.0944 1.38647 12.1606 1.33325 12.3334 1.33325Z" stroke="black" stroke-width="2"/>
</svg>
