<svg width="37" height="37" viewBox="0 0 37 37" fill="none" xmlns="http://www.w3.org/2000/svg">
<path d="M26.208 3.08032C28.2496 3.08032 30.1901 3.88828 31.6545 5.34549C33.1189 6.80269 33.9197 8.75043 33.9197 10.792V26.208C33.9197 28.2495 33.1117 30.1901 31.6545 31.6545C30.1973 33.1189 28.2496 33.9197 26.208 33.9197H10.792C8.75044 33.9197 6.80991 33.1117 5.34549 31.6545C3.88107 30.1973 3.08033 28.2495 3.08033 26.208V10.792C3.08033 8.75043 3.88828 6.80991 5.34549 5.34549C6.80269 3.88107 8.75044 3.08032 10.792 3.08032H26.208ZM26.208 0H10.792C4.85495 0 0 4.85494 0 10.792V26.208C0 32.145 4.85495 37 10.792 37H26.208C32.1451 37 37 32.145 37 26.208V10.792C37 4.85494 32.1451 0 26.208 0Z" fill="#EA1A65"/>
<path d="M28.7378 10.8658C27.4429 10.8658 26.4027 9.82556 26.4027 8.53074C26.4027 7.23591 27.4429 6.19569 28.7378 6.19569C30.018 6.19569 31.0728 7.23591 31.0728 8.53074C31.0728 9.82556 30.018 10.8658 28.7378 10.8658ZM18.6338 12.4225C22.0672 12.4225 24.8533 15.2085 24.8533 18.642C24.8533 22.0755 22.0672 24.8616 18.6338 24.8616C15.2003 24.8616 12.4142 22.0755 12.4142 18.642C12.4142 15.2085 15.2003 12.4225 18.6338 12.4225ZM18.6338 9.30909C13.4836 9.30909 9.3081 13.4846 9.3081 18.6348C9.3081 23.785 13.4836 27.9604 18.6338 27.9604C23.784 27.9604 27.9594 23.785 27.9594 18.6348C27.9594 13.4918 23.784 9.30909 18.6338 9.30909Z" fill="#EA1A65"/>
</svg>
