<svg width="18" height="18" viewBox="0 0 18 18" fill="none" xmlns="http://www.w3.org/2000/svg">
<path d="M9.84315 15.1568C11.5559 16.0188 13.5723 16.6404 15.9375 16.9063C16.5115 16.9709 17 16.511 17 15.9334V13.7808C17 13.3219 16.6877 12.9219 16.2425 12.8106L13.5493 12.1373C13.2085 12.0521 12.848 12.152 12.5996 12.4004L9.84315 15.1568ZM9.84315 15.1568C6.72749 13.5888 4.61705 11.225 3.24117 8.75883M3.24117 8.75883C1.93032 6.40926 1.28622 3.96674 1.07481 2.03084C1.01343 1.46884 1.46855 1 2.03389 1H4.1802C4.65688 1 5.06729 1.33646 5.16078 1.80388L5.89504 5.47521C5.96061 5.80307 5.85799 6.14201 5.62157 6.37843L3.24117 8.75883Z" stroke="black" stroke-width="2"/>
</svg>
