<svg width="45" height="29" viewBox="0 0 45 29" fill="none" xmlns="http://www.w3.org/2000/svg">
<path d="M18.1917 15.9412C18.2436 13.6314 18.1917 8.65374 18.1917 6.86703C18.1917 5.09345 16.8424 2.87992 16.0899 2H25.4313V11.9849C25.4313 12.9471 26.3316 13.498 27.0204 12.871C29.4019 10.7032 32.7255 6.31981 34.2799 2.81992C34.497 2.3309 34.9517 2 35.4617 2H40.1279C40.8514 2 41.415 2.65205 41.2239 3.39148C40.4033 6.56683 37.7693 11.1579 35.857 14.2335C35.2285 15.2442 35.3042 16.5729 36.0863 17.455C37.9431 19.5493 40.7606 22.6296 42.7044 24.9797C43.3778 25.7939 42.8255 26.9951 41.8038 26.9951H36.0738C35.6944 26.9951 35.3373 26.8115 35.0951 26.502C33.5445 24.5204 31.1392 21.9092 28.7008 20.3132C28.2012 20.0447 27.3864 19.6237 26.6827 19.2983C26.0223 18.993 25.4313 19.4757 25.4313 20.2392V23.6954C25.4313 26.4212 23.589 27.0226 22.4732 26.9951C20.3454 27.1051 14.8499 25.3858 10.2126 19.5708C5.54194 13.7139 2.64871 5.76714 2 2H10.018C10.3683 4.13105 11.5026 8.17568 14.1719 11.9849" stroke="#2B74B9" stroke-width="2.25" stroke-linecap="round" stroke-linejoin="round"/>
</svg>
