<svg width="44" height="34" viewBox="0 0 44 34" fill="none" xmlns="http://www.w3.org/2000/svg">
<path d="M41.1571 6.9311C40.7088 5.0934 39.3708 3.66094 37.6648 3.14387L37.6314 3.13692C34.5004 2.33336 21.9967 2.33334 21.9967 2.33334C21.9967 2.33334 9.49289 2.33334 6.36193 3.20678C4.62251 3.73084 3.28448 5.16327 2.84294 6.96603L2.83626 7.00096C2.30105 9.93569 2 13.3176 2 16.7694C2 16.8672 2 16.9581 2 17.0559V17.0419C2 17.1467 2 17.2655 2 17.3843C2 20.8361 2.30773 24.2181 2.88977 27.4952L2.84294 27.1528C3.338 28.9276 4.66264 30.2971 6.33516 30.7863L6.36862 30.7932C9.49289 31.6667 22.0033 31.6667 22.0033 31.6667C22.0033 31.6667 34.5071 31.6667 37.6381 30.7932C39.3775 30.2692 40.7155 28.8368 41.1571 27.034L41.1637 26.9991C41.6989 24.0643 42 20.6824 42 17.2306C42 17.1607 42 17.0909 42 17.021V17.0349C42 16.9301 42 16.8113 42 16.6926C42 13.2408 41.6923 9.85885 41.1102 6.58173L41.1571 6.9311Z" stroke="#D62D30" stroke-width="3" stroke-linecap="round" stroke-linejoin="round"/>
<path d="M17.8535 23.4114L28.5202 17.1257L17.8535 10.84V23.4114Z" stroke="#D62D30" stroke-width="3" stroke-linecap="round" stroke-linejoin="round"/>
</svg>
